<mxfile host="65bd71144e">
    <diagram id="kI2TxlEAmkLJwoIHT96z" name="Task 1.2">
        <mxGraphModel dx="1241" dy="862" grid="1" gridSize="10" guides="1" tooltips="1" connect="1" arrows="1" fold="1" page="1" pageScale="1" pageWidth="850" pageHeight="1100" math="0" shadow="0">
            <root>
                <mxCell id="0"/>
                <mxCell id="1" parent="0"/>
                <mxCell id="45" value="" style="rounded=1;whiteSpace=wrap;html=1;fontSize=24;direction=south;fillColor=#0050ef;fontColor=#ffffff;strokeColor=#CC0066;shadow=1;glass=0;sketch=1;gradientDirection=east;" parent="1" vertex="1">
                    <mxGeometry x="130" y="10" width="510" height="1140" as="geometry"/>
                </mxCell>
                <mxCell id="2" value="&lt;font style=&quot;font-size: 24px&quot;&gt;Urban Waste Management System&lt;/font&gt;" style="text;html=1;align=center;verticalAlign=middle;whiteSpace=wrap;rounded=0;fontStyle=1;fontColor=#66FF66;" parent="1" vertex="1">
                    <mxGeometry x="184" y="20" width="402" height="30" as="geometry"/>
                </mxCell>
                <mxCell id="104" style="edgeStyle=none;html=1;exitX=1;exitY=0.3333333333333333;exitDx=0;exitDy=0;exitPerimeter=0;entryX=0;entryY=0.5;entryDx=0;entryDy=0;fontSize=14;endArrow=none;endFill=0;" parent="1" source="41" target="103" edge="1">
                    <mxGeometry relative="1" as="geometry"/>
                </mxCell>
                <mxCell id="129" style="edgeStyle=none;html=1;exitX=1;exitY=0.3333333333333333;exitDx=0;exitDy=0;exitPerimeter=0;entryX=0;entryY=0.5;entryDx=0;entryDy=0;endArrow=none;endFill=0;" parent="1" source="41" target="123" edge="1">
                    <mxGeometry relative="1" as="geometry"/>
                </mxCell>
                <mxCell id="41" value="Back officer" style="shape=umlActor;verticalLabelPosition=bottom;verticalAlign=top;html=1;outlineConnect=0;fontSize=24;" parent="1" vertex="1">
                    <mxGeometry x="50" y="530" width="30" height="60" as="geometry"/>
                </mxCell>
                <mxCell id="42" value="Collector" style="shape=umlActor;verticalLabelPosition=bottom;verticalAlign=top;html=1;outlineConnect=0;fontSize=24;" parent="1" vertex="1">
                    <mxGeometry x="700" y="410" width="30" height="60" as="geometry"/>
                </mxCell>
                <mxCell id="43" value="Janitor" style="shape=umlActor;verticalLabelPosition=bottom;verticalAlign=top;html=1;outlineConnect=0;fontSize=24;" parent="1" vertex="1">
                    <mxGeometry x="700" y="650" width="30" height="60" as="geometry"/>
                </mxCell>
                <mxCell id="51" value="" style="endArrow=none;startArrow=classic;html=1;fontSize=24;exitX=1;exitY=0.3333333333333333;exitDx=0;exitDy=0;exitPerimeter=0;entryX=0;entryY=0.5;entryDx=0;entryDy=0;endFill=0;" parent="1" source="41" target="54" edge="1">
                    <mxGeometry width="50" height="50" relative="1" as="geometry">
                        <mxPoint x="230" y="380" as="sourcePoint"/>
                        <mxPoint x="337" y="180" as="targetPoint"/>
                        <Array as="points">
                            <mxPoint x="150" y="140"/>
                        </Array>
                    </mxGeometry>
                </mxCell>
                <mxCell id="54" value="&lt;font style=&quot;font-size: 20px&quot;&gt;Communicate&lt;/font&gt;" style="ellipse;whiteSpace=wrap;html=1;fontSize=24;" parent="1" vertex="1">
                    <mxGeometry x="296.5" y="50" width="170" height="80" as="geometry"/>
                </mxCell>
                <mxCell id="55" value="&lt;font style=&quot;font-size: 20px&quot;&gt;Employee Overview&lt;/font&gt;" style="ellipse;whiteSpace=wrap;html=1;fontSize=24;" parent="1" vertex="1">
                    <mxGeometry x="171.5" y="230" width="170" height="80" as="geometry"/>
                </mxCell>
                <mxCell id="60" value="" style="endArrow=none;html=1;fontColor=#66FF66;exitX=1;exitY=0.3333333333333333;exitDx=0;exitDy=0;exitPerimeter=0;entryX=0;entryY=0.5;entryDx=0;entryDy=0;endFill=0;" parent="1" source="41" target="55" edge="1">
                    <mxGeometry width="50" height="50" relative="1" as="geometry">
                        <mxPoint x="350" y="300" as="sourcePoint"/>
                        <mxPoint x="400" y="250" as="targetPoint"/>
                    </mxGeometry>
                </mxCell>
                <mxCell id="63" value="&lt;font style=&quot;font-size: 18px&quot;&gt;Group Schedule &amp;amp; Tasks Overview&lt;/font&gt;" style="ellipse;whiteSpace=wrap;html=1;fontSize=24;" parent="1" vertex="1">
                    <mxGeometry x="179.75" y="130" width="153.5" height="70" as="geometry"/>
                </mxCell>
                <mxCell id="92" value="" style="endArrow=classic;html=1;shadow=0;dashed=1;sketch=0;fontColor=none;exitX=1;exitY=0.5;exitDx=0;exitDy=0;entryX=0;entryY=0.5;entryDx=0;entryDy=0;" parent="1" source="63" target="68" edge="1">
                    <mxGeometry relative="1" as="geometry">
                        <mxPoint x="360" y="289.99999999999994" as="sourcePoint"/>
                        <mxPoint x="479.9999999999999" y="309.99999999999994" as="targetPoint"/>
                    </mxGeometry>
                </mxCell>
                <mxCell id="93" value="&lt;span style=&quot;color: rgb(255, 255, 255); background-color: rgb(42, 42, 42); font-size: 17px;&quot;&gt;«include»&lt;/span&gt;" style="edgeLabel;resizable=0;html=1;align=center;verticalAlign=bottom;rounded=1;shadow=1;glass=1;sketch=0;fontColor=none;fillColor=#FFFFFF;gradientColor=#006666;gradientDirection=east;fontSize=17;labelBackgroundColor=#000000;" parent="92" connectable="0" vertex="1">
                    <mxGeometry relative="1" as="geometry"/>
                </mxCell>
                <mxCell id="103" value="&lt;font style=&quot;font-size: 20px&quot;&gt;Route, MCPs &amp;amp; areas overview&lt;/font&gt;" style="ellipse;whiteSpace=wrap;html=1;fontSize=24;" parent="1" vertex="1">
                    <mxGeometry x="171" y="620" width="170" height="80" as="geometry"/>
                </mxCell>
                <mxCell id="106" value="" style="endArrow=none;html=1;fontSize=18;exitX=1;exitY=0.3333333333333333;exitDx=0;exitDy=0;exitPerimeter=0;entryX=0;entryY=0.5;entryDx=0;entryDy=0;endFill=0;" parent="1" source="41" target="63" edge="1">
                    <mxGeometry width="50" height="50" relative="1" as="geometry">
                        <mxPoint x="340" y="300" as="sourcePoint"/>
                        <mxPoint x="390" y="250" as="targetPoint"/>
                    </mxGeometry>
                </mxCell>
                <mxCell id="114" value="&lt;font style=&quot;font-size: 20px&quot;&gt;Check in/check out tasks&lt;/font&gt;" style="ellipse;whiteSpace=wrap;html=1;fontSize=24;" parent="1" vertex="1">
                    <mxGeometry x="459.5" y="210" width="170" height="80" as="geometry"/>
                </mxCell>
                <mxCell id="115" value="&lt;font style=&quot;font-size: 20px&quot;&gt;Notify&lt;/font&gt;" style="ellipse;whiteSpace=wrap;html=1;fontSize=24;" parent="1" vertex="1">
                    <mxGeometry x="449" y="300" width="170" height="80" as="geometry"/>
                </mxCell>
                <mxCell id="123" value="&lt;font style=&quot;font-size: 20px&quot;&gt;Vehicle Management&lt;/font&gt;" style="ellipse;whiteSpace=wrap;html=1;" parent="1" vertex="1">
                    <mxGeometry x="181" y="370" width="150" height="90" as="geometry"/>
                </mxCell>
                <mxCell id="124" value="&lt;font style=&quot;font-size: 20px&quot;&gt;Assign vehicles&lt;/font&gt;" style="ellipse;whiteSpace=wrap;html=1;" parent="1" vertex="1">
                    <mxGeometry x="179.25" y="530" width="151" height="80" as="geometry"/>
                </mxCell>
                <mxCell id="4P3WCTROCwJ_oHzgmAUe-129" value="&lt;font style=&quot;font-size: 20px&quot;&gt;Assign route, MCPs &amp;amp; areas&lt;/font&gt;" style="ellipse;whiteSpace=wrap;html=1;" parent="1" vertex="1">
                    <mxGeometry x="181" y="790" width="151" height="80" as="geometry"/>
                </mxCell>
                <mxCell id="4P3WCTROCwJ_oHzgmAUe-132" value="&lt;font style=&quot;font-size: 20px&quot;&gt;Assigned route &amp;amp; MCPs overview&lt;/font&gt;" style="ellipse;whiteSpace=wrap;html=1;fontSize=24;" parent="1" vertex="1">
                    <mxGeometry x="459.5" y="500" width="170" height="80" as="geometry"/>
                </mxCell>
                <mxCell id="4P3WCTROCwJ_oHzgmAUe-133" value="&lt;font style=&quot;font-size: 20px&quot;&gt;Assigned vehicle overview&lt;/font&gt;" style="ellipse;whiteSpace=wrap;html=1;fontSize=24;" parent="1" vertex="1">
                    <mxGeometry x="461.25" y="390" width="170" height="80" as="geometry"/>
                </mxCell>
                <mxCell id="4P3WCTROCwJ_oHzgmAUe-134" value="&lt;font style=&quot;font-size: 20px&quot;&gt;Assigned area overview&lt;/font&gt;" style="ellipse;whiteSpace=wrap;html=1;fontSize=24;" parent="1" vertex="1">
                    <mxGeometry x="459.5" y="630" width="170" height="80" as="geometry"/>
                </mxCell>
                <mxCell id="68" value="&lt;font style=&quot;font-size: 18px&quot;&gt;Personal schedule &amp;amp; tasks overview&lt;/font&gt;" style="ellipse;whiteSpace=wrap;html=1;" parent="1" vertex="1">
                    <mxGeometry x="463" y="130" width="166.5" height="70" as="geometry"/>
                </mxCell>
                <mxCell id="4P3WCTROCwJ_oHzgmAUe-154" value="" style="endArrow=none;dashed=1;html=1;dashPattern=1 3;strokeWidth=2;fontSize=15;fontColor=#FFFFFF;exitX=0;exitY=0.5;exitDx=0;exitDy=0;exitPerimeter=0;" parent="1" source="4P3WCTROCwJ_oHzgmAUe-153" edge="1">
                    <mxGeometry width="50" height="50" relative="1" as="geometry">
                        <mxPoint x="180" y="740" as="sourcePoint"/>
                        <mxPoint x="260" y="760" as="targetPoint"/>
                    </mxGeometry>
                </mxCell>
                <mxCell id="4P3WCTROCwJ_oHzgmAUe-153" value="&lt;span style=&quot;font-size: 18px&quot;&gt;Condition:&lt;/span&gt;&lt;br style=&quot;font-size: 18px&quot;&gt;&lt;span style=&quot;font-size: 18px&quot;&gt;button pressed&lt;/span&gt;" style="shape=note2;boundedLbl=1;whiteSpace=wrap;html=1;size=17;verticalAlign=middle;align=center;fontSize=14;fontColor=#FFFFFF;" parent="1" vertex="1">
                    <mxGeometry x="300" y="730" width="135" height="60" as="geometry"/>
                </mxCell>
                <mxCell id="4P3WCTROCwJ_oHzgmAUe-155" value="" style="endArrow=none;dashed=1;html=1;dashPattern=1 3;strokeWidth=2;fontSize=15;fontColor=#FFFFFF;exitX=0;exitY=0.5;exitDx=0;exitDy=0;exitPerimeter=0;" parent="1" source="4P3WCTROCwJ_oHzgmAUe-156" edge="1">
                    <mxGeometry width="50" height="50" relative="1" as="geometry">
                        <mxPoint x="170" y="500" as="sourcePoint"/>
                        <mxPoint x="260" y="500" as="targetPoint"/>
                    </mxGeometry>
                </mxCell>
                <mxCell id="4P3WCTROCwJ_oHzgmAUe-156" value="&lt;span style=&quot;font-size: 18px&quot;&gt;Condition:&lt;/span&gt;&lt;br style=&quot;font-size: 18px&quot;&gt;&lt;span style=&quot;font-size: 18px&quot;&gt;button pressed&lt;/span&gt;" style="shape=note2;boundedLbl=1;whiteSpace=wrap;html=1;size=17;verticalAlign=middle;align=center;fontSize=14;fontColor=#FFFFFF;" parent="1" vertex="1">
                    <mxGeometry x="314" y="470" width="135" height="60" as="geometry"/>
                </mxCell>
                <mxCell id="4P3WCTROCwJ_oHzgmAUe-158" value="" style="endArrow=classic;html=1;shadow=0;dashed=1;sketch=0;fontColor=none;exitX=0.5;exitY=0;exitDx=0;exitDy=0;entryX=0.5;entryY=1;entryDx=0;entryDy=0;" parent="1" source="124" target="123" edge="1">
                    <mxGeometry relative="1" as="geometry">
                        <mxPoint x="342.74999999999966" y="240" as="sourcePoint"/>
                        <mxPoint x="483.5" y="240" as="targetPoint"/>
                    </mxGeometry>
                </mxCell>
                <mxCell id="4P3WCTROCwJ_oHzgmAUe-159" value="&lt;span style=&quot;color: rgb(255, 255, 255); background-color: rgb(42, 42, 42); font-size: 17px;&quot;&gt;&lt;font style=&quot;font-size: 17px;&quot;&gt;«extend»&lt;/font&gt;&lt;/span&gt;" style="edgeLabel;resizable=0;html=1;align=center;verticalAlign=bottom;rounded=1;shadow=1;glass=1;sketch=0;fontColor=none;fillColor=#FFFFFF;gradientColor=#006666;gradientDirection=east;fontSize=17;labelBackgroundColor=#000000;" parent="4P3WCTROCwJ_oHzgmAUe-158" connectable="0" vertex="1">
                    <mxGeometry relative="1" as="geometry">
                        <mxPoint x="-1" y="32" as="offset"/>
                    </mxGeometry>
                </mxCell>
                <mxCell id="4P3WCTROCwJ_oHzgmAUe-160" value="" style="endArrow=classic;html=1;shadow=0;dashed=1;sketch=0;fontColor=none;entryX=0.5;entryY=1;entryDx=0;entryDy=0;exitX=0.5;exitY=0;exitDx=0;exitDy=0;" parent="1" source="4P3WCTROCwJ_oHzgmAUe-129" target="103" edge="1">
                    <mxGeometry relative="1" as="geometry">
                        <mxPoint x="256" y="710" as="sourcePoint"/>
                        <mxPoint x="257.8700000000001" y="700" as="targetPoint"/>
                    </mxGeometry>
                </mxCell>
                <mxCell id="4P3WCTROCwJ_oHzgmAUe-161" value="&lt;span style=&quot;color: rgb(255 , 255 , 255) ; background-color: rgb(42 , 42 , 42)&quot;&gt;&lt;font style=&quot;font-size: 17px&quot;&gt;&lt;font&gt;«&lt;/font&gt;&lt;font&gt;extend&lt;/font&gt;&lt;font&gt;»&lt;/font&gt;&lt;/font&gt;&lt;/span&gt;" style="edgeLabel;resizable=0;html=1;align=center;verticalAlign=bottom;rounded=1;shadow=1;glass=1;sketch=0;fontColor=none;fillColor=#FFFFFF;gradientColor=#006666;gradientDirection=east;fontSize=18;labelBackgroundColor=#000000;" parent="4P3WCTROCwJ_oHzgmAUe-160" connectable="0" vertex="1">
                    <mxGeometry relative="1" as="geometry"/>
                </mxCell>
                <mxCell id="RvLVZ33_M0Qde_lb7PAG-133" value="&lt;font style=&quot;font-size: 20px&quot;&gt;Tasks overview&lt;/font&gt;" style="ellipse;whiteSpace=wrap;html=1;fontSize=24;" parent="1" vertex="1">
                    <mxGeometry x="179.25" y="890" width="170" height="70" as="geometry"/>
                </mxCell>
                <mxCell id="RvLVZ33_M0Qde_lb7PAG-134" value="&lt;font style=&quot;font-size: 20px&quot;&gt;Assign tasks&lt;/font&gt;" style="ellipse;whiteSpace=wrap;html=1;" parent="1" vertex="1">
                    <mxGeometry x="189.25" y="1060" width="151" height="80" as="geometry"/>
                </mxCell>
                <mxCell id="RvLVZ33_M0Qde_lb7PAG-135" value="" style="endArrow=none;dashed=1;html=1;dashPattern=1 3;strokeWidth=2;fontSize=15;fontColor=#FFFFFF;exitX=0;exitY=0.5;exitDx=0;exitDy=0;exitPerimeter=0;" parent="1" source="RvLVZ33_M0Qde_lb7PAG-136" edge="1">
                    <mxGeometry width="50" height="50" relative="1" as="geometry">
                        <mxPoint x="188.25" y="1010" as="sourcePoint"/>
                        <mxPoint x="268.25" y="1030" as="targetPoint"/>
                    </mxGeometry>
                </mxCell>
                <mxCell id="RvLVZ33_M0Qde_lb7PAG-136" value="&lt;span style=&quot;font-size: 18px&quot;&gt;Condition:&lt;/span&gt;&lt;br style=&quot;font-size: 18px&quot;&gt;&lt;span style=&quot;font-size: 18px&quot;&gt;button pressed&lt;/span&gt;" style="shape=note2;boundedLbl=1;whiteSpace=wrap;html=1;size=17;verticalAlign=middle;align=center;fontSize=14;fontColor=#FFFFFF;" parent="1" vertex="1">
                    <mxGeometry x="308.25" y="1000" width="135" height="60" as="geometry"/>
                </mxCell>
                <mxCell id="RvLVZ33_M0Qde_lb7PAG-137" value="" style="endArrow=classic;html=1;shadow=0;dashed=1;sketch=0;fontColor=none;entryX=0.5;entryY=1;entryDx=0;entryDy=0;" parent="1" target="RvLVZ33_M0Qde_lb7PAG-133" edge="1">
                    <mxGeometry relative="1" as="geometry">
                        <mxPoint x="264.2500000000001" y="1060" as="sourcePoint"/>
                        <mxPoint x="266.1200000000001" y="970" as="targetPoint"/>
                    </mxGeometry>
                </mxCell>
                <mxCell id="RvLVZ33_M0Qde_lb7PAG-138" value="&lt;span style=&quot;color: rgb(255 , 255 , 255) ; background-color: rgb(42 , 42 , 42)&quot;&gt;&lt;font style=&quot;font-size: 17px&quot;&gt;&lt;font&gt;«&lt;/font&gt;&lt;font&gt;extend&lt;/font&gt;&lt;font&gt;»&lt;/font&gt;&lt;/font&gt;&lt;/span&gt;" style="edgeLabel;resizable=0;html=1;align=center;verticalAlign=bottom;rounded=1;shadow=1;glass=1;sketch=0;fontColor=none;fillColor=#FFFFFF;gradientColor=#006666;gradientDirection=east;fontSize=18;labelBackgroundColor=#000000;" parent="RvLVZ33_M0Qde_lb7PAG-137" connectable="0" vertex="1">
                    <mxGeometry relative="1" as="geometry"/>
                </mxCell>
                <mxCell id="RvLVZ33_M0Qde_lb7PAG-139" value="" style="endArrow=none;html=1;fontSize=17;fontColor=#FFFFFF;exitX=1;exitY=0.3333333333333333;exitDx=0;exitDy=0;exitPerimeter=0;entryX=0;entryY=0.5;entryDx=0;entryDy=0;endFill=0;" parent="1" source="41" target="RvLVZ33_M0Qde_lb7PAG-133" edge="1">
                    <mxGeometry width="50" height="50" relative="1" as="geometry">
                        <mxPoint x="140" y="550" as="sourcePoint"/>
                        <mxPoint x="140" y="720" as="targetPoint"/>
                    </mxGeometry>
                </mxCell>
                <mxCell id="133" value="Employee" style="shape=umlActor;verticalLabelPosition=bottom;verticalAlign=top;html=1;outlineConnect=0;fontSize=24;" parent="1" vertex="1">
                    <mxGeometry x="720" y="70" width="30" height="60" as="geometry"/>
                </mxCell>
                <mxCell id="137" value="" style="endArrow=none;html=1;exitX=0;exitY=0.3333333333333333;exitDx=0;exitDy=0;exitPerimeter=0;entryX=1;entryY=0.5;entryDx=0;entryDy=0;" parent="1" source="133" target="54" edge="1">
                    <mxGeometry width="50" height="50" relative="1" as="geometry">
                        <mxPoint x="720" y="390" as="sourcePoint"/>
                        <mxPoint x="770" y="340" as="targetPoint"/>
                    </mxGeometry>
                </mxCell>
                <mxCell id="138" value="" style="endArrow=none;html=1;exitX=1;exitY=0.5;exitDx=0;exitDy=0;entryX=0;entryY=0.3333333333333333;entryDx=0;entryDy=0;entryPerimeter=0;" parent="1" source="68" target="133" edge="1">
                    <mxGeometry width="50" height="50" relative="1" as="geometry">
                        <mxPoint x="750" y="300" as="sourcePoint"/>
                        <mxPoint x="800" y="250" as="targetPoint"/>
                    </mxGeometry>
                </mxCell>
                <mxCell id="139" value="" style="endArrow=none;html=1;exitX=1;exitY=0.5;exitDx=0;exitDy=0;entryX=0;entryY=0.3333333333333333;entryDx=0;entryDy=0;entryPerimeter=0;" parent="1" source="114" target="133" edge="1">
                    <mxGeometry width="50" height="50" relative="1" as="geometry">
                        <mxPoint x="670" y="320" as="sourcePoint"/>
                        <mxPoint x="720" y="270" as="targetPoint"/>
                    </mxGeometry>
                </mxCell>
                <mxCell id="140" value="" style="endArrow=classic;html=1;exitX=1;exitY=0.5;exitDx=0;exitDy=0;entryX=0;entryY=1;entryDx=0;entryDy=0;entryPerimeter=0;" parent="1" source="115" target="133" edge="1">
                    <mxGeometry width="50" height="50" relative="1" as="geometry">
                        <mxPoint x="730" y="470" as="sourcePoint"/>
                        <mxPoint x="780" y="420" as="targetPoint"/>
                    </mxGeometry>
                </mxCell>
                <mxCell id="141" value="" style="endArrow=none;html=1;exitX=1;exitY=0.5;exitDx=0;exitDy=0;entryX=0;entryY=0.3333333333333333;entryDx=0;entryDy=0;entryPerimeter=0;" parent="1" source="4P3WCTROCwJ_oHzgmAUe-133" target="42" edge="1">
                    <mxGeometry width="50" height="50" relative="1" as="geometry">
                        <mxPoint x="760" y="600" as="sourcePoint"/>
                        <mxPoint x="810" y="550" as="targetPoint"/>
                    </mxGeometry>
                </mxCell>
                <mxCell id="142" value="" style="endArrow=none;html=1;exitX=1;exitY=0.5;exitDx=0;exitDy=0;entryX=0;entryY=0.3333333333333333;entryDx=0;entryDy=0;entryPerimeter=0;" parent="1" source="4P3WCTROCwJ_oHzgmAUe-132" target="42" edge="1">
                    <mxGeometry width="50" height="50" relative="1" as="geometry">
                        <mxPoint x="730" y="610" as="sourcePoint"/>
                        <mxPoint x="780" y="560" as="targetPoint"/>
                    </mxGeometry>
                </mxCell>
                <mxCell id="143" value="" style="endArrow=none;html=1;exitX=1;exitY=0.5;exitDx=0;exitDy=0;entryX=0;entryY=0.3333333333333333;entryDx=0;entryDy=0;entryPerimeter=0;" parent="1" source="4P3WCTROCwJ_oHzgmAUe-134" target="43" edge="1">
                    <mxGeometry width="50" height="50" relative="1" as="geometry">
                        <mxPoint x="690" y="630" as="sourcePoint"/>
                        <mxPoint x="740" y="580" as="targetPoint"/>
                    </mxGeometry>
                </mxCell>
                <mxCell id="145" value="" style="endArrow=none;html=1;exitX=1;exitY=1;exitDx=0;exitDy=0;exitPerimeter=0;" parent="1" source="43" edge="1">
                    <mxGeometry width="50" height="50" relative="1" as="geometry">
                        <mxPoint x="770" y="710" as="sourcePoint"/>
                        <mxPoint x="840" y="710" as="targetPoint"/>
                    </mxGeometry>
                </mxCell>
                <mxCell id="146" value="" style="endArrow=classic;html=1;entryX=1;entryY=1;entryDx=0;entryDy=0;entryPerimeter=0;" parent="1" target="133" edge="1">
                    <mxGeometry width="50" height="50" relative="1" as="geometry">
                        <mxPoint x="840" y="130" as="sourcePoint"/>
                        <mxPoint x="840" y="200" as="targetPoint"/>
                    </mxGeometry>
                </mxCell>
                <mxCell id="148" value="" style="endArrow=none;html=1;" parent="1" edge="1">
                    <mxGeometry width="50" height="50" relative="1" as="geometry">
                        <mxPoint x="840" y="130" as="sourcePoint"/>
                        <mxPoint x="840" y="710" as="targetPoint"/>
                    </mxGeometry>
                </mxCell>
                <mxCell id="149" value="" style="endArrow=none;html=1;exitX=1;exitY=1;exitDx=0;exitDy=0;exitPerimeter=0;" parent="1" source="42" edge="1">
                    <mxGeometry width="50" height="50" relative="1" as="geometry">
                        <mxPoint x="760" y="380" as="sourcePoint"/>
                        <mxPoint x="840" y="470" as="targetPoint"/>
                    </mxGeometry>
                </mxCell>
            </root>
        </mxGraphModel>
    </diagram>
</mxfile>